# xmcd
# 
# Track frame offsets:
#     150
#     39065
#     73912
#     89765
# 
# Disc length: 2450
# 
# Revision: 4
# Processed by: cddbd v1.5.2PL0 Copyright (c) Steve Scherf et al.
# Submitted via: BonkEnc v1.0.15
# 
DISCID=30099004
DTITLE=SBB - Memento Z Banalnym Tryptykiem (Remastered)
DYEAR=1980
DGENRE=Rock
TTITLE0=Moja Ziemio Wysniona
TTITLE1=Trojkat Radosci
TTITLE2=Strategia Pulsu
TTITLE3=Memento Z Banalnym Tryptykiem
EXTD=YEAR: 1980
EXTT0=
EXTT1=
EXTT2=
EXTT3=
PLAYORDER=
